<?xml version="1.0" encoding="UTF-8" standalone="no"?>
<!-- Created with Inkscape (http://www.inkscape.org/) -->

<svg
   xmlns:dc="http://purl.org/dc/elements/1.1/"
   xmlns:cc="http://creativecommons.org/ns#"
   xmlns:rdf="http://www.w3.org/1999/02/22-rdf-syntax-ns#"
   xmlns:svg="http://www.w3.org/2000/svg"
   xmlns="http://www.w3.org/2000/svg"
   xmlns:sodipodi="http://sodipodi.sourceforge.net/DTD/sodipodi-0.dtd"
   xmlns:inkscape="http://www.inkscape.org/namespaces/inkscape"
   width="128"
   height="128"
   id="svg2"
   sodipodi:version="0.32"
   inkscape:version="0.91 r13725"
   version="1.0"
   sodipodi:docname="volumeslider.svg"
   inkscape:output_extension="org.inkscape.output.svgz.inkscape"
   inkscape:export-filename="arrow-up.png"
   inkscape:export-xdpi="11.25"
   inkscape:export-ydpi="11.25">
  <sodipodi:namedview
     id="base"
     pagecolor="#eff0f1"
     bordercolor="#666666"
     borderopacity="1.0"
     gridtolerance="10000"
     guidetolerance="10"
     objecttolerance="10"
     inkscape:pageopacity="1"
     inkscape:pageshadow="2"
     inkscape:zoom="30"
     inkscape:cx="71.410474"
     inkscape:cy="52.702848"
     inkscape:document-units="px"
     inkscape:current-layer="vertical-slider-shadow"
     width="128px"
     height="128px"
     showgrid="true"
     inkscape:window-width="1920"
     inkscape:window-height="1021"
     inkscape:window-x="0"
     inkscape:window-y="0"
     inkscape:snap-nodes="true"
     inkscape:snap-global="true"
     inkscape:window-maximized="1"
     inkscape:snap-page="true"
     showguides="true"
     inkscape:guide-bbox="true">
    <inkscape:grid
       id="GridFromPre046Settings"
       type="xygrid"
       originx="0px"
       originy="0px"
       spacingx="1px"
       spacingy="1px"
       color="#0000ff"
       empcolor="#0000ff"
       opacity="0.01960784"
       empopacity="0.03921569"
       empspacing="2"
       visible="true"
       enabled="true"
       snapvisiblegridlinesonly="true" />
    <sodipodi:guide
       position="0,51"
       orientation="1,0"
       id="guide4247" />
    <sodipodi:guide
       position="16,66"
       orientation="0,1"
       id="guide4249" />
    <sodipodi:guide
       position="24,72"
       orientation="1,0"
       id="guide4251" />
    <sodipodi:guide
       position="41,42"
       orientation="0,1"
       id="guide4253" />
    <sodipodi:guide
       position="48,68"
       orientation="1,0"
       id="guide4303" />
    <sodipodi:guide
       position="72,70"
       orientation="1,0"
       id="guide4305" />
    <sodipodi:guide
       position="101,45"
       orientation="1,0"
       id="guide4307" />
  </sodipodi:namedview>
  <defs
     id="defs4">

    <style
       id="style8"
       type="text/css">
      /* Override Color Scheme by defining first */
      /* ColorScheme-Text = Groove color */
      /* ColorScheme-Background = Triangle color */
      .ColorScheme-Background { color: #31363b; }
      .ColorScheme-ButtonFocus { color: #3daee9; }
      .ColorScheme-ButtonText { color: #31363b; }
      .ColorScheme-ButtonBackground { color: #eff0f1; }
      .ColorScheme-ButtonHover { color: #93cee9; }
      .ColorScheme-Highlight { color: #93cee9; }
      .ColorScheme-Text { color: #eeeeee; }
      
    </style>
    <style
       id="current-color-scheme"
       type="text/css">
       /* This entire element will be replaced will a different stylesheet. */

      .ColorScheme-Text {
        color:#31363b;
        stop-color:#31363b;
      }
      .ColorScheme-Background {
        color:#eff0f1;
        stop-color:#eff0f1;
      }
      .ColorScheme-Highlight {
        color:#3daee9;
        stop-color:#3daee9;
      }
      .ColorScheme-ViewText {
        color:#31363b;
        stop-color:#31363b;
      }
      .ColorScheme-ViewBackground {
        color:#fcfcfc;
        stop-color:#fcfcfc;
      }
      .ColorScheme-ViewHover {
        color:#93cee9;
        stop-color:#93cee9;
      }
      .ColorScheme-ViewFocus{
        color:#3daee9;
        stop-color:#3daee9;
      }
      .ColorScheme-ButtonText {
        color:#31363b;
        stop-color:#31363b;
      }
      .ColorScheme-ButtonBackground {
        color:#eff0f1;
        stop-color:#eff0f1;
      }
      .ColorScheme-ButtonHover {
        color:#93cee9;
        stop-color:#93cee9;
      }
      .ColorScheme-ButtonFocus{
        color:#3daee9;
        stop-color:#3daee9;
      }
      </style>
    <style
       id="style7"
       type="text/css">
      /* Extra defininitions not in ColorScheme */

      .ColorScheme-Danger {
        color: #ee0000;
      }
      </style>
  </defs>
  <metadata
     id="metadata7">
    <rdf:RDF>
      <cc:Work
         rdf:about="">
        <dc:format>image/svg+xml</dc:format>
        <dc:type
           rdf:resource="http://purl.org/dc/dcmitype/StillImage" />
      </cc:Work>
    </rdf:RDF>
  </metadata>
  <g
     inkscape:label="Layer 1"
     inkscape:groupmode="layer"
     id="layer1">
    <path
       class="ColorScheme-Text"
       inkscape:connector-curvature="0"
       style="opacity:0.3;fill:currentColor"
       d="m 10,9 0,1 3,0 0,-1 -3,0 z"
       id="groove-top" />
    <path
       class="ColorScheme-Text"
       style="opacity:0.3;fill:currentColor"
       d="M 9,9 C 8.43928,9 8,9.43928 8,10 l 1,0 z"
       id="groove-topleft"
       sodipodi:nodetypes="cccc"
       inkscape:connector-curvature="0" />
    <rect
       ry="2.077126"
       rx="0"
       y="4.6594176"
       x="2.2599621"
       height="2.077126"
       width="2.0329318"
       id="hint-tile-center"
       style="fill:#4e9a06;fill-opacity:1;fill-rule:nonzero;stroke:none" />
    <path
       class="ColorScheme-Text"
       inkscape:connector-curvature="0"
       sodipodi:nodetypes="cccc"
       id="groove-topright"
       d="M 15,10 C 15,9.43928 14.56072,9 14,9 l 0,1 z"
       style="opacity:0.3;fill:currentColor" />
    <path
       class="ColorScheme-Text"
       d="m 10,16 0,-1 3,0 0,1 -3,0 z"
       style="opacity:0.3;fill:currentColor"
       inkscape:connector-curvature="0"
       id="groove-bottom" />
    <path
       class="ColorScheme-Text"
       inkscape:connector-curvature="0"
       sodipodi:nodetypes="cccc"
       id="groove-bottomleft"
       d="M 9,16 C 8.43928,16 8,15.56072 8,15 l 1,0 z"
       style="opacity:0.3;fill:currentColor" />
    <path
       class="ColorScheme-Text"
       style="opacity:0.3;fill:currentColor"
       d="m 15,15 c 0,0.56072 -0.43928,1 -1,1 l 0,-1 z"
       id="groove-bottomright"
       sodipodi:nodetypes="cccc"
       inkscape:connector-curvature="0" />
    <path
       class="ColorScheme-Text"
       id="groove-center"
       d="m 10,11 0,3 3,0 0,-3 -3,0 z"
       style="opacity:0.3;fill:currentColor"
       inkscape:connector-curvature="0" />
    <path
       class="ColorScheme-Text"
       inkscape:connector-curvature="0"
       style="opacity:0.3;fill:currentColor"
       d="m 8,11 0,3 1,0 0,-3 -1,0 z"
       id="groove-left" />
    <path
       class="ColorScheme-Text"
       inkscape:connector-curvature="0"
       style="opacity:0.3;fill:currentColor"
       d="m 14,11 0,3 1,0 0,-3 -1,0 z"
       id="groove-right" />
    <path
       id="groove-highlight-top"
       d="m 28,9 0,1 3,0 0,-1 -3,0 z"
       style="fill:currentColor;fill-opacity:1"
       inkscape:connector-curvature="0"
       class="ColorScheme-Highlight" />
    <path
       inkscape:connector-curvature="0"
       sodipodi:nodetypes="cccc"
       id="groove-highlight-topleft"
       d="m 27,9 c -0.56072,0 -1,0.43928 -1,1 l 1,0 z"
       style="fill:currentColor;fill-opacity:1"
       class="ColorScheme-Highlight" />
    <path
       style="fill:currentColor;fill-opacity:1"
       d="M 33,10 C 33,9.43928 32.56072,9 32,9 l 0,1 z"
       id="groove-highlight-topright"
       sodipodi:nodetypes="cccc"
       inkscape:connector-curvature="0"
       class="ColorScheme-Highlight" />
    <path
       inkscape:connector-curvature="0"
       style="fill:currentColor;fill-opacity:1"
       d="m 28,16 0,-1 3,0 0,1 -3,0 z"
       id="groove-highlight-bottom"
       class="ColorScheme-Highlight" />
    <path
       style="fill:currentColor;fill-opacity:1"
       d="m 27,16 c -0.56072,0 -1,-0.43928 -1,-1 l 1,0 z"
       id="groove-highlight-bottomleft"
       sodipodi:nodetypes="cccc"
       inkscape:connector-curvature="0"
       class="ColorScheme-Highlight" />
    <path
       inkscape:connector-curvature="0"
       sodipodi:nodetypes="cccc"
       id="groove-highlight-bottomright"
       d="m 33,15 c 0,0.56072 -0.43928,1 -1,1 l 0,-1 z"
       style="fill:currentColor;fill-opacity:1"
       class="ColorScheme-Highlight" />
    <path
       inkscape:connector-curvature="0"
       style="fill:currentColor;fill-opacity:1"
       d="m 28,11 0,3 3,0 0,-3 -3,0 z"
       id="groove-highlight-center"
       class="ColorScheme-Highlight" />
    <path
       id="groove-highlight-left"
       d="m 26,11 0,3 1,0 0,-3 -1,0 z"
       style="fill:currentColor;fill-opacity:1"
       inkscape:connector-curvature="0"
       class="ColorScheme-Highlight" />
    <path
       id="groove-highlight-right"
       d="m 32,11 0,3 1,0 0,-3 -1,0 z"
       style="fill:currentColor;fill-opacity:1"
       inkscape:connector-curvature="0"
       class="ColorScheme-Highlight" />
    <g
       id="horizontal-slider-hover"
       transform="translate(24,2)">
      <rect
         y="96"
         x="14"
         height="24"
         width="24"
         id="rect3075"
         style="opacity:0.00100002;fill:#000000;fill-opacity:0.00392157;stroke:none" />
      <path
         class="ColorScheme-ButtonHover"
         style="fill:currentColor"
         d="m 26,98.000001 c -5.522847,0 -10,4.477149 -10,9.999999 0,5.52285 4.477153,10 10,10 5.522847,0 10,-4.47715 10,-10 0,-5.52285 -4.477153,-9.999999 -10,-9.999999 z m 0,1 c 4.970563,0 9,4.029439 9,8.999999 0,4.97056 -4.029437,9 -9,9 -4.970563,0 -9,-4.02944 -9,-9 0,-4.97056 4.029437,-8.999999 9,-8.999999 z"
         id="path3077"
         inkscape:connector-curvature="0" />
      <path
         inkscape:connector-curvature="0"
         class="ColorScheme-ButtonHover"
         id="path3088"
         d="m 26,97 c -6.075132,0 -11,4.92487 -11,11 0,6.07513 4.924868,11 11,11 6.075132,0 11,-4.92487 11,-11 0,-6.07513 -4.924868,-11 -11,-11 z m 0,1 c 5.522847,0 10,4.47715 10,10 0,5.52285 -4.477153,10 -10,10 -5.522847,0 -10,-4.47715 -10,-10 0,-5.52285 4.477153,-10 10,-10 z"
         style="opacity:0.3;fill:currentColor" />
    </g>
    <g
       id="horizontal-slider-focus"
       transform="translate(52,2)">
      <rect
         style="opacity:0.00100002;fill:#000000;fill-opacity:0.00392157;stroke:none"
         id="rect3104"
         width="24"
         height="24"
         x="14"
         y="96" />
      <path
         inkscape:connector-curvature="0"
         id="path3106"
         d="m 26,98.000001 c -5.522847,0 -10,4.477149 -10,9.999999 0,5.52285 4.477153,10 10,10 5.522847,0 10,-4.47715 10,-10 0,-5.52285 -4.477153,-9.999999 -10,-9.999999 z m 0,1 c 4.970563,0 9,4.029439 9,8.999999 0,4.97056 -4.029437,9 -9,9 -4.970563,0 -9,-4.02944 -9,-9 0,-4.97056 4.029437,-8.999999 9,-8.999999 z"
         style="fill:currentColor"
         class="ColorScheme-ButtonFocus" />
      <path
         style="opacity:0.3;fill:currentColor"
         d="m 26,97 c -6.075132,0 -11,4.92487 -11,11 0,6.07513 4.924868,11 11,11 6.075132,0 11,-4.92487 11,-11 0,-6.07513 -4.924868,-11 -11,-11 z m 0,1 c 5.522847,0 10,4.47715 10,10 0,5.52285 -4.477153,10 -10,10 -5.522847,0 -10,-4.47715 -10,-10 0,-5.52285 4.477153,-10 10,-10 z"
         id="path3108"
         class="ColorScheme-ButtonFocus"
         inkscape:connector-curvature="0" />
    </g>
    <g
       transform="matrix(1.2,0,0,1.2,-2.2,63.2)"
       id="horizontal-slider-handle"
       inkscape:label="horizontal-slider-handle">
      <rect
         style="opacity:0.00100002;fill:#000000;fill-opacity:0.00392157;stroke:none"
         id="rect3785-4"
         width="24"
         height="24"
         x="14"
         y="42"
         transform="matrix(0.83333333,0,0,0.83333333,-5.6666667,-6)" />
      <path
         sodipodi:type="arc"
         style="opacity:0.5;fill:currentColor"
         id="path3921-2"
         sodipodi:cx="14"
         sodipodi:cy="40"
         sodipodi:rx="4"
         sodipodi:ry="4"
         d="m 18,40 a 4,4 0 0 1 -4,4 4,4 0 0 1 -4,-4 4,4 0 0 1 4,-4 4,4 0 0 1 4,4 z"
         transform="matrix(2.0833333,0,0,2.0833333,-13.166666,-44.333332)"
         class="ColorScheme-ButtonText" />
      <circle
         transform="matrix(1.875,0,0,1.875,-10.25,-36)"
         id="path3923-4"
         style="fill:currentColor"
         class="ColorScheme-ButtonBackground"
         cx="14"
         cy="40"
         r="4" />
    </g>
    <g
       transform="translate(0,42)"
       id="vertical-slider-handle">
      <rect
         y="20"
         x="0"
         height="24"
         width="24"
         id="rect58"
         style="opacity:0;fill:#000000" />
      <path
         class="ColorScheme-ButtonText"
         style="opacity:0.5;fill:currentColor"
         d="M 18,25 18,38.31579 12,44 6,38.31579 6,25 Z"
         id="path60"
         inkscape:connector-curvature="0"
         sodipodi:nodetypes="cccccc" />
      <path
         inkscape:connector-curvature="0"
         id="path62"
         class="ColorScheme-ButtonBackground"
         style="fill:currentColor"
         d="M 17,26 17,37.917895 12,42.5 7,37.917895 7,26 Z"
         sodipodi:nodetypes="cccccc" />
    </g>
    <g
       transform="translate(24,42)"
       id="vertical-slider-hover">
      <rect
         y="20"
         x="0"
         height="24"
         width="24"
         id="rect54"
         style="opacity:0;fill:#000000" />
      <path
         class="ColorScheme-ButtonHover"
         style="opacity:0.5;fill:currentColor"
         d="M 18,25 18,38.31579 12,44 6,38.31579 6,25 Z"
         id="path56"
         inkscape:connector-curvature="0"
         sodipodi:nodetypes="cccccc" />
      <path
         inkscape:connector-curvature="0"
         id="path58"
         class="ColorScheme-ButtonBackground"
         style="fill:currentColor"
         d="M 17,26 17,37.917895 12,42.5 7,37.917895 7,26 Z"
         sodipodi:nodetypes="cccccc" />
    </g>
    <g
       transform="translate(48,42)"
       id="vertical-slider-focus">
      <rect
         y="20"
         x="0"
         height="24"
         width="24"
         id="rect61"
         style="opacity:0;fill:#000000" />
      <path
         class="ColorScheme-ButtonFocus"
         style="opacity:0.5;fill:currentColor"
         d="M 18,25 18,38.31579 12,44 6,38.31579 6,25 Z"
         id="path63"
         inkscape:connector-curvature="0"
         sodipodi:nodetypes="cccccc" />
      <path
         inkscape:connector-curvature="0"
         id="path65"
         class="ColorScheme-ButtonBackground"
         style="fill:currentColor"
         d="M 17,26 17,37.917895 12,42.5 7,37.917895 7,26 Z"
         sodipodi:nodetypes="cccccc" />
    </g>
    <g
       transform="translate(72,42)"
       id="vertical-slider-shadow">
      <rect
         y="20"
         x="0"
         height="24"
         width="24"
         id="rect68"
         style="opacity:0;fill:#000000" />
      <path
         style="color:#3daee9;opacity:0.05"
         d="M 78,67 78,80.316406 84,86 90,80.316406 90,67 Z m 1,1 10,0 0,11.917969 L 84,84.5 79,79.918 Z"
         transform="translate(-72,-42)"
         id="path70"
         inkscape:connector-curvature="0"
         sodipodi:nodetypes="cccccccccccc" />
      <path
         style="color:#3daee9;opacity:0.15"
         d="M 89 68 L 89 79.917969 L 84 84.5 L 84.769531 85.269531 L 90 80.316406 L 90 69 L 89 68 z "
         transform="translate(-72,-42)"
         id="path65-7" />
    </g>
    <g
       transform="translate(10,0)"
       id="horizontal-slider-shadow2">
      <rect
         y="98"
         x="96"
         height="24"
         width="24"
         id="rect3114"
         style="opacity:0.00100002;fill:#000000;fill-opacity:0.00392157;stroke:none" />
      <path
         inkscape:connector-curvature="0"
         id="path3118"
         d="m 108,99 c -6.07513,0 -11,4.92487 -11,11 0,6.07513 4.92487,11 11,11 6.07513,0 11,-4.92487 11,-11 0,-6.07513 -4.92487,-11 -11,-11 z m 0,1 c 5.52285,0 10,4.47715 10,10 0,5.52285 -4.47715,10 -10,10 -5.52285,0 -10,-4.47715 -10,-10 0,-5.52285 4.47715,-10 10,-10 z"
         style="opacity:0.05;color:#3daee9;fill:#000000;fill-opacity:1" />
      <path
         id="path3037"
         d="M 115.71875,103.625 C 117.14531,105.35359 118,107.58375 118,110 c 0,2.76963 -1.14961,5.2516 -2.96875,7.0625 C 113.2229,118.86267 110.75322,120 108,120 c -2.76143,0 -5.25285,-1.12786 -7.0625,-2.9375 1.83415,2.22247 4.61215,3.625 7.71875,3.625 5.52285,0 10,-4.47715 10,-10 0,-2.76143 -1.12786,-5.25286 -2.9375,-7.0625 z"
         style="opacity:0.15;color:#3daee9;fill:#000000;fill-opacity:1"
         inkscape:connector-curvature="0" />
    </g>
    <g
       id="groove-triangle"
       transform="matrix(0.6,0,0,1.6666667,1,-2.3333338)">
      <path
         class="ColorScheme-Background"
         inkscape:connector-curvature="0"
         style="opacity:0.5;fill:currentColor"
         d="m 15,11 5,3 0,-3 z"
         sodipodi:nodetypes="cccc"
         id="path61" />
    </g>
    <g
       id="groove-highlight-triangle"
       transform="matrix(0.6,0,0,1.6666667,19,-2.3333338)">
      <path
         class="ColorScheme-Highlight"
         inkscape:connector-curvature="0"
         style="opacity:0.5;fill:currentColor"
         d="m 15,11 5,3 0,-3 z"
         sodipodi:nodetypes="cccc"
         id="path61-6" />
    </g>
    <g
       id="groove-danger-triangle"
       transform="matrix(0.6,0,0,1.6666667,35,-2.3333338)">
      <path
         class="ColorScheme-Danger"
         inkscape:connector-curvature="0"
         style="opacity:0.5;fill:currentColor"
         d="m 15,11 5,3 0,-3 z"
         sodipodi:nodetypes="cccc"
         id="path61-6-6" />
    </g>
    <path
       id="groove-danger-top"
       d="M 44,8.9999998 44,10 l 3,0 0,-1.0000002 -3,0 z"
       style="fill:currentColor;fill-opacity:1"
       inkscape:connector-curvature="0"
       class="ColorScheme-Danger"
       inkscape:label="#groove-danger-top" />
    <path
       inkscape:connector-curvature="0"
       sodipodi:nodetypes="cccc"
       id="groove-danger-topleft"
       d="m 43,8.9999998 c -0.56072,0 -1,0.43928 -1,1.0000002 l 1,0 z"
       style="fill:currentColor;fill-opacity:1"
       class="ColorScheme-Danger"
       inkscape:label="#groove-danger-topleft" />
    <path
       style="fill:currentColor;fill-opacity:1"
       d="M 49,10 C 49,9.4392798 48.56072,8.9999998 48,8.9999998 L 48,10 Z"
       id="groove-danger-topright"
       sodipodi:nodetypes="cccc"
       inkscape:connector-curvature="0"
       class="ColorScheme-Danger" />
    <path
       inkscape:connector-curvature="0"
       style="fill:currentColor;fill-opacity:1"
       d="m 44,16 0,-1 3,0 0,1 -3,0 z"
       id="groove-danger-bottom"
       class="ColorScheme-Danger"
       inkscape:label="#groove-danger-bottom" />
    <path
       style="fill:currentColor;fill-opacity:1"
       d="m 43,16 c -0.56072,0 -1,-0.43928 -1,-1 l 1,0 z"
       id="groove-danger-bottomleft"
       sodipodi:nodetypes="cccc"
       inkscape:connector-curvature="0"
       class="ColorScheme-Danger"
       inkscape:label="#groove-danger-bottomleft" />
    <path
       inkscape:connector-curvature="0"
       sodipodi:nodetypes="cccc"
       id="groove-danger-bottomright"
       d="m 49,15 c 0,0.56072 -0.43928,1 -1,1 l 0,-1 z"
       style="fill:currentColor;fill-opacity:1"
       class="ColorScheme-Danger"
       inkscape:label="#groove-danger-bottomright" />
    <path
       inkscape:connector-curvature="0"
       style="fill:currentColor;fill-opacity:1"
       d="m 44,11 0,3 3,0 0,-3 -3,0 z"
       id="groove-danger-center"
       class="ColorScheme-Danger" />
    <path
       id="groove-danger-left"
       d="m 42,11 0,3 1,0 0,-3 -1,0 z"
       style="fill:currentColor;fill-opacity:1"
       inkscape:connector-curvature="0"
       class="ColorScheme-Danger" />
    <path
       id="groove-danger-right"
       d="m 48,11 0,3 1,0 0,-3 -1,0 z"
       style="fill:currentColor;fill-opacity:1"
       inkscape:connector-curvature="0"
       class="ColorScheme-Danger"
       inkscape:label="#groove-danger-right" />
    <path
       id="groove-peaking-top"
       d="m 19.023615,9.0818306 0,1.0000004 3,0 0,-1.0000004 -3,0 z"
       style="fill:currentColor;fill-opacity:0.3"
       inkscape:connector-curvature="0"
       class="ColorScheme-Text" />
    <path
       inkscape:connector-curvature="0"
       sodipodi:nodetypes="cccc"
       id="groove-peaking-topleft"
       d="m 18.023615,9.0818306 c -0.56072,0 -1,0.43928 -1,1.0000004 l 1,0 z"
       style="fill:currentColor;fill-opacity:0.3"
       class="ColorScheme-Text" />
    <path
       style="fill:currentColor;fill-opacity:0.3"
       d="m 24.023615,10.081831 c 0,-0.5607204 -0.43928,-1.0000004 -1,-1.0000004 l 0,1.0000004 z"
       id="groove-peaking-topright"
       sodipodi:nodetypes="cccc"
       inkscape:connector-curvature="0"
       class="ColorScheme-Text" />
    <path
       inkscape:connector-curvature="0"
       style="fill:currentColor;fill-opacity:0.3"
       d="m 19.023615,16.081831 0,-1 3,0 0,1 -3,0 z"
       id="groove-peaking-bottom"
       class="ColorScheme-Text" />
    <path
       style="fill:currentColor;fill-opacity:0.3"
       d="m 18.023615,16.081831 c -0.56072,0 -1,-0.43928 -1,-1 l 1,0 z"
       id="groove-peaking-bottomleft"
       sodipodi:nodetypes="cccc"
       inkscape:connector-curvature="0"
       class="ColorScheme-Text" />
    <path
       inkscape:connector-curvature="0"
       sodipodi:nodetypes="cccc"
       id="groove-peaking-bottomright"
       d="m 24.023615,15.081831 c 0,0.56072 -0.43928,1 -1,1 l 0,-1 z"
       style="fill:currentColor;fill-opacity:0.3"
       class="ColorScheme-Text" />
    <path
       inkscape:connector-curvature="0"
       style="fill:currentColor;fill-opacity:0.3"
       d="m 19.023615,11.081831 0,3 3,0 0,-3 -3,0 z"
       id="groove-peaking-center"
       class="ColorScheme-Text" />
    <path
       id="groove-peaking-left"
       d="m 17.023615,11.081831 0,3 1,0 0,-3 -1,0 z"
       style="fill:currentColor;fill-opacity:0.3"
       inkscape:connector-curvature="0"
       class="ColorScheme-Text" />
    <path
       id="groove-peaking-right"
       d="m 23.023615,11.081831 0,3 1,0 0,-3 -1,0 z"
       style="fill:currentColor;fill-opacity:0.3"
       inkscape:connector-curvature="0"
       class="ColorScheme-Text" />
    <g
       id="groove-peaking-triangle"
       transform="matrix(0.6,0,0,1.6666667,10.023615,-2.2515034)">
      <path
         class="ColorScheme-Text"
         inkscape:connector-curvature="0"
         style="opacity:0.3;fill:currentColor"
         d="m 15,11 5,3 0,-3 z"
         sodipodi:nodetypes="cccc"
         id="path61-6-8" />
    </g>
  </g>
</svg>
